<svg xmlns="http://www.w3.org/2000/svg" xmlns:xlink="http://www.w3.org/1999/xlink" width="24.758" height="36.709" viewBox="0 0 24.758 36.709">
  <defs>
    <linearGradient id="linear-gradient" x1="-0.163" y1="0.5" x2="0.837" y2="0.5" gradientUnits="objectBoundingBox">
      <stop offset="0" stop-color="#fff"/>
      <stop offset="0.565" stop-color="#79c8ca"/>
      <stop offset="1" stop-color="#16a1a4"/>
    </linearGradient>
    <linearGradient id="linear-gradient-2" y1="0.5" x2="1" y2="0.5" gradientUnits="objectBoundingBox">
      <stop offset="0" stop-color="#fff"/>
      <stop offset="1" stop-color="#16a1a4"/>
    </linearGradient>
    <linearGradient id="linear-gradient-3" x1="-0.284" y1="0.5" x2="0.716" y2="0.5" xlink:href="#linear-gradient-2"/>
  </defs>
  <g id="Group_2974" data-name="Group 2974" transform="translate(-74 -117)">
    <g id="Group_2914" data-name="Group 2914" transform="translate(73.922 117)">
      <path id="Path_539" data-name="Path 539" d="M272.5,149.515c-.324-.2-.767-.237-.982-.391s-.082-.192-.213-.243c-.168-.065-.667-.21-.73-.228l-.089-.033a1.977,1.977,0,0,0-.281-.07,1.251,1.251,0,0,0-1.481.693c-.172.31-.326.631-.471.954a8.676,8.676,0,0,1-1.623,2.544.367.367,0,0,0-.017.32c.186.434.405.853.585,1.29.044.107-.017.257-.031.387a1.274,1.274,0,0,1-.266-.256c-.365-.654-.671-1.345-1.084-1.966a8.837,8.837,0,0,0-2.58-2.449c-1.547-1.015-3.126-1.98-4.681-2.983a17.759,17.759,0,0,1-4.394-3.9,19.229,19.229,0,0,1-3.626-8.383c-.119-.6-.214-1.2-.32-1.8a11.359,11.359,0,0,0-.286,1.586,12.174,12.174,0,0,0,.142,3.88,9.725,9.725,0,0,0,2.676,4.916c.884.892,1.848,1.7,2.767,2.562.078.073.084.224.123.339-.112-.026-.251-.018-.332-.083-.361-.289-.709-.593-1.054-.9a17.339,17.339,0,0,1-3.06-3.3,10.336,10.336,0,0,1-1.69-5.569c0-.082-.019-.163-.029-.244a9.742,9.742,0,0,0-.606,2.9,7.7,7.7,0,0,0,3.023,6.808,13.049,13.049,0,0,0,4.372,2.227,1.1,1.1,0,0,1,.3.11.268.268,0,0,1,.089.207c0,.035-.112.089-.175.091a.819.819,0,0,1-.248-.059,13.956,13.956,0,0,1-3.822-1.768,8.282,8.282,0,0,1-3.708-5.189,2.061,2.061,0,0,0-.07-.212l-.126.016c.015.941-.029,1.888.057,2.822a7.7,7.7,0,0,0,2.308,4.986,8.874,8.874,0,0,0,7.26,2.487c.147-.013.356-.092.38.146.005.052-.212.167-.336.184a9.161,9.161,0,0,1-8.853-4.291c-.322-.571-.56-1.189-.837-1.786a12.153,12.153,0,0,0,.487,4.278,4.592,4.592,0,0,0,2.4,2.813,6.972,6.972,0,0,0,2.617.632,19.785,19.785,0,0,0,4.553-.349c.118-.02.255.065.382.1-.111.075-.213.194-.334.218a19.138,19.138,0,0,1-4.163.393,7.3,7.3,0,0,1-3.419-.8c-.4-.219-.755-.507-1.129-.762a4.167,4.167,0,0,0,3.34,2.893,8.124,8.124,0,0,0,3.473-.319c.784-.225,1.546-.528,2.322-.782.087-.028.2.032.3.052-.06.084-.1.208-.183.245-.3.139-.615.259-.929.369a11.683,11.683,0,0,1-4.311.839c-.429-.016-.855-.1-1.3-.147,1.858,1.879,4.858,1.887,6.275.545-.292-.078-.6-.139-.886-.247-.107-.04-.173-.19-.257-.291a1.805,1.805,0,0,1,.369-.02,7.45,7.45,0,0,0,1.006.172,3.158,3.158,0,0,0,2.33-1.079c.083-.085.239-.1.362-.145-.041.127-.043.3-.13.373a10.118,10.118,0,0,1-1.186.867,12.158,12.158,0,0,0-1.179.552,5.039,5.039,0,0,1-3.8,1.062c-.085-.01-.171-.011-.319-.02a2.645,2.645,0,0,0,1.581.809,5.529,5.529,0,0,0,3.883-1.423c-.31-.111-.591-.2-.86-.318-.07-.031-.1-.16-.144-.243a.963.963,0,0,1,.307-.044c.134.024.256.111.389.143A2.614,2.614,0,0,0,263,155.063c.057-.083.193-.111.292-.164,0,.113.035.251-.015.337a3.01,3.01,0,0,1-1.77,1.31,1.46,1.46,0,0,0-.469.251,6.849,6.849,0,0,1-3.369,1.654c-.179.026-.36.037-.579.059,1.588,1.223,4.565.666,5.054-.882-.289-.064-.585-.111-.867-.2-.1-.033-.171-.172-.254-.263a.917.917,0,0,1,.359-.042,1.943,1.943,0,0,0,1.532-.089,2.413,2.413,0,0,0,1.114-1.286c.039-.088.174-.135.264-.2.017.1.077.225.045.312a2.644,2.644,0,0,1-1.5,1.6.752.752,0,0,0-.348.324,2.752,2.752,0,0,1-1.209,1.255c-.383.191-.8.325-1.187.481,0,0,.012.023.029.027a3.32,3.32,0,0,0,4.049-2.8c.006-.053-.008-.121.02-.157a1.276,1.276,0,0,1,.194-.17c.045.064.126.126.129.193a1.886,1.886,0,0,1-.043.447,3.62,3.62,0,0,1-2.912,2.841.541.541,0,0,0-.486.374,3.872,3.872,0,0,1-1.157,1.566,7.045,7.045,0,0,1-3.6,1.459,17.213,17.213,0,0,1-5.864-.214c-.808-.158-1.6-.369-2.438-.564a10.616,10.616,0,0,0,1.687,2.073,2.93,2.93,0,0,0,2.761.7c1.034-.244,2.046-.579,3.06-.9.625-.2,1.231-.453,1.852-.664.1-.033.225.035.34.057-.075.089-.147.18-.225.265a.222.222,0,0,1-.088.037c-1.137.4-2.27.808-3.414,1.185a6.271,6.271,0,0,1-2.976.39,2.026,2.026,0,0,0,2.087,1.407,4.641,4.641,0,0,0,2.324-1.041c.844-.628,1.658-1.3,2.489-1.942.116-.09.245-.282.394-.093.035.044-.094.275-.2.363-.414.358-.843.7-1.275,1.036a7.743,7.743,0,0,1-3.968,2.067c.371.319.664.6.987.839a.769.769,0,0,0,.961-.025,6.092,6.092,0,0,0,.737-.621c.9-.881,1.779-1.777,2.675-2.657a10.191,10.191,0,0,1,.856-.733c.063-.049.188-.02.284-.026a1.07,1.07,0,0,1-.07.275c-.04.07-.126.114-.189.172-.585.538-1.182,1.063-1.751,1.618-.782.763-1.542,1.549-2.348,2.363.479.278.964.577,1.465.843.336.178.378.128.472-.235a13.144,13.144,0,0,1,.547-1.914,9.026,9.026,0,0,1,3.06-3.506.761.761,0,0,1,.3-.1c.767-.163,1.535-.328,2.3-.48.257-.051.428-.158.439-.46-.115.049-.229.141-.329.129a.493.493,0,0,1-.336-.193A.351.351,0,0,1,263,162.4c.363-.206.744-.38,1.126-.551a.319.319,0,0,1,.468.2,5.66,5.66,0,0,1,.143.691,12.056,12.056,0,0,0,3.507-2.322,8.107,8.107,0,0,0,2.206-4.944c.112-1.064.075-2.143.121-3.215a4.992,4.992,0,0,1,.233-1.381c.241-.593,1.079-.689,1.4-.742a1.923,1.923,0,0,0,.574-.2S272.82,149.712,272.5,149.515Zm-6.384,6.269c-.031.08-.164.121-.249.18-.027-.083-.1-.182-.074-.246.569-1.579-.207-2.681-1.319-3.63-.644-.549-1.356-1.019-2.038-1.525-.034-.026-.084-.04-.1-.073-.069-.112-.128-.229-.191-.344a1.11,1.11,0,0,1,.37.059,7.79,7.79,0,0,1,.67.448,10.479,10.479,0,0,1,2.4,2.085,11.121,11.121,0,0,1,.691,1.15A3.408,3.408,0,0,1,266.112,155.784Zm4.193-6.071a.372.372,0,0,1-.476-.274.366.366,0,0,1,.279-.464.353.353,0,0,1,.47.268A.357.357,0,0,1,270.3,149.713Z" transform="translate(-247.942 -132.892)" fill="url(#linear-gradient)"/>
      <path id="Path_540" data-name="Path 540" d="M306.334,227.132s.333-.194.248.047-.227.415-.089.7.8-.254.836-.563a2.236,2.236,0,0,0-.037-.627.329.329,0,0,1,.165-.333C307.663,226.238,306.334,227.132,306.334,227.132Z" transform="translate(-288.572 -197.805)" fill="url(#linear-gradient-2)"/>
      <path id="Path_541" data-name="Path 541" d="M292.887,133.3c.066-.216.129-.433.194-.649a26.019,26.019,0,0,0-2.884,4.932,15.687,15.687,0,0,0-.842,2.464,8.294,8.294,0,0,0,.5,2.871,8.991,8.991,0,0,0,1.77,2.865c.188.216.381.434.568.644l.26.293.032.037-.029.039a.17.17,0,0,0-.015.023l-.033.06-.055-.04a8.019,8.019,0,0,1-2.064-2.239,8.358,8.358,0,0,1-1.2-3.132c-.012.1-.023.2-.033.3a11.59,11.59,0,0,0,1.151,6.228,2.025,2.025,0,0,0,.769.91,13.215,13.215,0,0,1,3.224,2.652c.206.245.4.5.606.762.1-.108.2-.2.283-.293a9.8,9.8,0,0,0,1.516-2.574.419.419,0,0,0-.038-.465c-.655-.995-1.33-1.979-1.936-3a15.962,15.962,0,0,1-2.437-7.92A15.15,15.15,0,0,1,292.887,133.3Zm-.975,9.546a.192.192,0,0,1-.044.019.152.152,0,0,1-.174-.076l-.073-.112c-.066-.1-.135-.2-.2-.308a6.852,6.852,0,0,1-.785-2.019l-.007-.031a.678.678,0,0,1,.006-.4l.052-.16.061.156.2.509c.146.378.284.734.424,1.091a5.631,5.631,0,0,0,.525.984.941.941,0,0,1,.08.148A.151.151,0,0,1,291.912,142.843Z" transform="translate(-276.519 -132.648)" fill="url(#linear-gradient-3)"/>
    </g>
  </g>
</svg>
